<svg width="9" height="27" viewBox="0 0 9 27" fill="none" xmlns="http://www.w3.org/2000/svg">
<path d="M4.5 6.05515C6.0533 6.05515 7.3125 4.9441 7.3125 3.57354C7.3125 2.20298 6.0533 1.09192 4.5 1.09192C2.9467 1.09192 1.6875 2.20298 1.6875 3.57354C1.6875 4.9441 2.9467 6.05515 4.5 6.05515Z" fill="white"/>
<path d="M4.5 15.9816C6.0533 15.9816 7.3125 14.8706 7.3125 13.5C7.3125 12.1294 6.0533 11.0184 4.5 11.0184C2.9467 11.0184 1.6875 12.1294 1.6875 13.5C1.6875 14.8706 2.9467 15.9816 4.5 15.9816Z" fill="white"/>
<path d="M4.5 25.9081C6.0533 25.9081 7.3125 24.797 7.3125 23.4265C7.3125 22.0559 6.0533 20.9449 4.5 20.9449C2.9467 20.9449 1.6875 22.0559 1.6875 23.4265C1.6875 24.797 2.9467 25.9081 4.5 25.9081Z" fill="white"/>
</svg>
