<svg width="26" height="25" viewBox="0 0 26 25" fill="none" xmlns="http://www.w3.org/2000/svg">
<g clip-path="url(#clip0_410_177)">
<path fill-rule="evenodd" clip-rule="evenodd" d="M10.4151 4.83632C10.9332 5.2275 11.2312 5.81083 11.2312 6.43673C11.2312 11.4819 11.4083 12.8395 12.1322 13.3561C12.6072 13.6932 13.2582 13.6898 15.4515 13.6311C16.4709 13.6023 17.7764 13.5655 19.4863 13.5655C20.1683 13.5655 20.8109 13.8463 21.2464 14.3352C21.6509 14.7897 21.828 15.3834 21.7346 15.9679C20.9353 20.944 16.532 24.5578 11.2647 24.5578C5.42063 24.5578 0.666656 19.9867 0.666656 14.3686C0.666656 9.91368 4.17021 5.45876 8.47666 4.43938C9.14913 4.28175 9.87186 4.42902 10.4151 4.83632ZM9.0211 6.10192C8.98281 6.10192 8.94452 6.10652 8.90623 6.11573C5.35242 6.95678 2.46151 10.6592 2.46151 14.3686C2.46151 19.0352 6.41019 22.832 11.2647 22.832C15.6405 22.832 19.2972 19.8349 19.9601 15.7044C19.9649 15.6699 19.9817 15.5698 19.8836 15.4582C19.7902 15.3535 19.6418 15.2913 19.4863 15.2913C17.7979 15.2913 16.5092 15.3282 15.5029 15.3558C13.0667 15.426 12.0592 15.4524 11.0636 14.7425C9.6401 13.7285 9.45293 12.0237 9.43748 7.23986L9.43631 6.43673C9.43631 6.34008 9.39323 6.25955 9.30708 6.19511C9.22691 6.13414 9.1252 6.10192 9.0211 6.10192ZM22.2652 3.14536C24.3688 5.16687 25.7041 7.82348 25.6659 9.91403C25.6515 10.7298 25.0353 11.4109 24.2024 11.5317C22.5775 11.7676 20.675 11.8389 18.9914 11.8389C17.4239 11.8389 16.0442 11.7779 15.2509 11.7342C14.253 11.6778 13.4585 10.9127 13.401 9.95315C13.3077 8.43212 13.1055 4.56744 13.2491 1.57831C13.2885 0.709651 14.0185 0.0181724 14.9111 0.00321533C17.4682 -0.0681186 20.1066 1.07322 22.2652 3.14536ZM15.0643 1.72789H15.0379C14.9063 4.62611 15.1013 8.36999 15.1923 9.85305C15.1971 9.94164 15.2641 10.0061 15.355 10.0107C16.5851 10.0786 20.8233 10.2672 23.871 9.83579C23.8782 8.22042 22.7283 6.02978 20.9968 4.36609C19.2211 2.66098 17.12 1.72789 15.0643 1.72789Z" fill="black"/>
</g>
<defs>
<clipPath id="clip0_410_177">
<rect width="25" height="25" fill="white" transform="translate(0.666656)"/>
</clipPath>
</defs>
</svg>
