<svg width="25" height="25" viewBox="0 0 25 25" fill="none" xmlns="http://www.w3.org/2000/svg">
<g clip-path="url(#clip0_410_171)">
<g clip-path="url(#clip1_410_171)">
<path fill-rule="evenodd" clip-rule="evenodd" d="M14.1475 17.1585C15.5808 17.1585 16.7475 18.2642 16.7475 19.6233V23.1187C16.7475 23.4108 16.9927 23.6449 17.307 23.6517H19.5761C21.3642 23.6517 22.8177 22.2812 22.8177 20.5972V10.6835C22.8094 10.104 22.5201 9.55851 22.0237 9.19602L14.1749 3.22101C13.1213 2.42442 11.6475 2.42442 10.5904 3.22329L2.79513 9.19374C2.27965 9.56761 1.99037 10.1131 1.98441 10.7028V20.5972C1.98441 22.2812 3.43798 23.6517 5.22608 23.6517H7.51656C7.83918 23.6517 8.10108 23.4074 8.10108 23.1074C8.10108 23.0415 8.10941 22.9756 8.1237 22.9131V19.6233C8.1237 18.2722 9.28322 17.1676 10.7058 17.1585H14.1475ZM19.5761 25.3562H17.2856C15.9737 25.3267 14.9618 24.3437 14.9618 23.1187V19.6233C14.9618 19.204 14.5963 18.8631 14.1475 18.8631H10.7118C10.2725 18.8653 9.90941 19.2074 9.90941 19.6233V23.1074C9.90941 23.1926 9.89751 23.2744 9.87251 23.3517C9.74394 24.4767 8.73679 25.3562 7.51656 25.3562H5.22608C2.45346 25.3562 0.1987 23.221 0.1987 20.5972V10.6949C0.210605 9.56533 0.755843 8.53124 1.69751 7.85056L9.47727 1.89033C11.1904 0.594878 13.5773 0.594878 15.2868 1.88806L23.1225 7.85397C24.0427 8.52329 24.588 9.55511 24.6035 10.671V20.5972C24.6035 23.221 22.3487 25.3562 19.5761 25.3562Z" fill="black"/>
</g>
</g>
<defs>
<clipPath id="clip0_410_171">
<rect width="25" height="25" fill="white"/>
</clipPath>
<clipPath id="clip1_410_171">
<rect width="25" height="25" fill="white" transform="translate(0 0.5)"/>
</clipPath>
</defs>
</svg>
