<svg width="21" height="25" viewBox="0 0 21 25" fill="none" xmlns="http://www.w3.org/2000/svg">
<g clip-path="url(#clip0_410_181)">
<g clip-path="url(#clip1_410_181)">
<path fill-rule="evenodd" clip-rule="evenodd" d="M10.1796 15.57L10.3284 15.57L10.6584 15.5709C13.4608 15.5859 20.0258 15.8407 20.0258 20.1713C20.0258 24.1864 14.6341 24.7229 10.4401 24.7431L9.70072 24.7428C6.8983 24.7278 0.333313 24.4732 0.333313 20.1438C0.333313 16.0438 5.95206 15.57 10.1796 15.57ZM10.1796 17.445C4.89081 17.445 2.20831 18.3538 2.20831 20.1438C2.20831 21.9513 4.89081 22.8688 10.1796 22.8688C15.4683 22.8688 18.1508 21.96 18.1508 20.1713C18.1508 18.3612 15.4683 17.445 10.1796 17.445ZM10.1796 0C13.8458 0 16.8271 2.9825 16.8271 6.6475C16.8271 10.3125 13.8458 13.295 10.1796 13.295H10.1408C8.36706 13.2888 6.70456 12.5925 5.45831 11.3375C4.21081 10.0813 3.52706 8.41375 3.53327 6.64375C3.53327 2.9825 6.51456 0 10.1796 0ZM10.1796 1.875C7.54956 1.875 5.40828 4.01625 5.40828 6.6475C5.40331 7.92125 5.89331 9.115 6.78706 10.0163C7.68206 10.9163 8.87456 11.415 10.1446 11.42L10.1796 12.3463V11.42C12.8108 11.42 14.9521 9.27875 14.9521 6.6475C14.9521 4.01625 12.8108 1.875 10.1796 1.875Z" fill="black"/>
</g>
</g>
<defs>
<clipPath id="clip0_410_181">
<rect width="20" height="25" fill="white" transform="translate(0.333313)"/>
</clipPath>
<clipPath id="clip1_410_181">
<rect width="20" height="25" fill="white" transform="translate(0.333313)"/>
</clipPath>
</defs>
</svg>
