<svg width="374" height="50" viewBox="0 0 374 50" fill="none" xmlns="http://www.w3.org/2000/svg">
<rect width="374" height="50" rx="15" fill="#F5F5F5"/>
<path d="M66.992 30.128C66.192 30.128 65.424 30.0107 64.688 29.776C63.9627 29.5307 63.3813 29.2053 62.944 28.8C62.784 28.6507 62.704 28.464 62.704 28.24C62.704 28.0907 62.7467 27.9627 62.832 27.856C62.9173 27.7387 63.0187 27.68 63.136 27.68C63.2747 27.68 63.424 27.7387 63.584 27.856C64.576 28.624 65.7067 29.008 66.976 29.008C67.8933 29.008 68.5973 28.832 69.088 28.48C69.5787 28.128 69.824 27.6267 69.824 26.976C69.824 26.6027 69.7067 26.304 69.472 26.08C69.2373 25.8453 68.928 25.6587 68.544 25.52C68.16 25.3813 67.6427 25.2373 66.992 25.088C66.1173 24.8853 65.3973 24.672 64.832 24.448C64.2773 24.224 63.824 23.904 63.472 23.488C63.1307 23.072 62.96 22.528 62.96 21.856C62.96 21.216 63.1307 20.6507 63.472 20.16C63.824 19.6587 64.3093 19.2747 64.928 19.008C65.5573 18.7307 66.272 18.592 67.072 18.592C67.8187 18.592 68.512 18.7093 69.152 18.944C69.8027 19.168 70.3467 19.4933 70.784 19.92C70.9547 20.0907 71.04 20.2773 71.04 20.48C71.04 20.6293 70.9973 20.7627 70.912 20.88C70.8267 20.9867 70.7253 21.04 70.608 21.04C70.4907 21.04 70.336 20.9813 70.144 20.864C69.6213 20.4373 69.136 20.1387 68.688 19.968C68.24 19.7973 67.7013 19.712 67.072 19.712C66.1867 19.712 65.4987 19.8987 65.008 20.272C64.5173 20.6347 64.272 21.1467 64.272 21.808C64.272 22.3733 64.4853 22.8 64.912 23.088C65.3493 23.3653 66.016 23.6107 66.912 23.824C67.8827 24.0587 68.6453 24.2773 69.2 24.48C69.7547 24.672 70.2133 24.9653 70.576 25.36C70.9493 25.7547 71.136 26.2827 71.136 26.944C71.136 27.5733 70.96 28.128 70.608 28.608C70.2667 29.088 69.7813 29.4613 69.152 29.728C68.5227 29.9947 67.8027 30.128 66.992 30.128ZM79.107 28.192C79.2243 28.192 79.3257 28.24 79.411 28.336C79.4963 28.432 79.539 28.5547 79.539 28.704C79.539 28.9707 79.3523 29.216 78.979 29.44C78.595 29.664 78.1897 29.8347 77.763 29.952C77.3363 30.0587 76.9203 30.112 76.515 30.112C75.3097 30.112 74.355 29.7547 73.651 29.04C72.9577 28.3253 72.611 27.3387 72.611 26.08C72.611 25.28 72.7657 24.576 73.075 23.968C73.3843 23.3493 73.8163 22.8693 74.371 22.528C74.9363 22.1867 75.5763 22.016 76.291 22.016C77.3043 22.016 78.1097 22.3467 78.707 23.008C79.3043 23.6693 79.603 24.5653 79.603 25.696C79.603 25.9093 79.5603 26.064 79.475 26.16C79.3897 26.256 79.251 26.304 79.059 26.304H73.907C74.003 28.1387 74.8723 29.056 76.515 29.056C76.931 29.056 77.2883 29.0027 77.587 28.896C77.8857 28.7787 78.2057 28.624 78.547 28.432C78.8243 28.272 79.011 28.192 79.107 28.192ZM76.307 23.024C75.6243 23.024 75.075 23.2373 74.659 23.664C74.2537 24.0907 74.0137 24.6933 73.939 25.472H78.467C78.4457 24.6827 78.2483 24.08 77.875 23.664C77.5017 23.2373 76.979 23.024 76.307 23.024ZM84.6965 22.016C86.6485 22.016 87.6245 23.04 87.6245 25.088V29.44C87.6245 29.632 87.5658 29.7867 87.4485 29.904C87.3418 30.0213 87.1925 30.08 87.0005 30.08C86.8085 30.08 86.6538 30.0213 86.5365 29.904C86.4192 29.7867 86.3605 29.632 86.3605 29.44V28.672C86.1578 29.1307 85.8485 29.488 85.4325 29.744C85.0165 29.9893 84.5365 30.112 83.9925 30.112C83.4912 30.112 83.0272 30.0107 82.6005 29.808C82.1845 29.6053 81.8538 29.3227 81.6085 28.96C81.3632 28.5973 81.2405 28.1973 81.2405 27.76C81.2405 27.1733 81.3898 26.72 81.6885 26.4C81.9872 26.0693 82.4778 25.8347 83.1605 25.696C83.8432 25.5467 84.7925 25.472 86.0085 25.472H86.3605V24.944C86.3605 24.304 86.2272 23.8347 85.9605 23.536C85.7045 23.2373 85.2832 23.088 84.6965 23.088C83.9712 23.088 83.2352 23.2853 82.4885 23.68C82.2005 23.8613 81.9978 23.952 81.8805 23.952C81.7525 23.952 81.6458 23.904 81.5605 23.808C81.4752 23.712 81.4325 23.5893 81.4325 23.44C81.4325 23.2907 81.4752 23.1627 81.5605 23.056C81.6565 22.9387 81.8058 22.8213 82.0085 22.704C82.3818 22.4907 82.8032 22.3253 83.2725 22.208C83.7525 22.08 84.2272 22.016 84.6965 22.016ZM84.1685 29.088C84.8085 29.088 85.3312 28.8747 85.7365 28.448C86.1525 28.0107 86.3605 27.4507 86.3605 26.768V26.304H86.0725C85.1338 26.304 84.4192 26.3467 83.9285 26.432C83.4378 26.5067 83.0858 26.64 82.8725 26.832C82.6698 27.0133 82.5685 27.2853 82.5685 27.648C82.5685 28.064 82.7178 28.4107 83.0165 28.688C83.3258 28.9547 83.7098 29.088 84.1685 29.088ZM93.8529 22.048C94.3009 22.016 94.5249 22.1973 94.5249 22.592C94.5249 22.7627 94.4769 22.9013 94.3809 23.008C94.2849 23.104 94.1195 23.1627 93.8849 23.184L93.4049 23.232C92.6902 23.296 92.1569 23.552 91.8049 24C91.4635 24.4373 91.2929 24.9547 91.2929 25.552V29.44C91.2929 29.6533 91.2342 29.8133 91.1169 29.92C90.9995 30.0267 90.8449 30.08 90.6529 30.08C90.4609 30.08 90.3009 30.0267 90.1729 29.92C90.0555 29.8027 89.9969 29.6427 89.9969 29.44V22.688C89.9969 22.4853 90.0609 22.3307 90.1889 22.224C90.3169 22.1067 90.4715 22.048 90.6529 22.048C90.8235 22.048 90.9675 22.1067 91.0849 22.224C91.2022 22.3307 91.2609 22.48 91.2609 22.672V23.568C91.4849 23.0987 91.7995 22.7413 92.2049 22.496C92.6209 22.2507 93.0955 22.1067 93.6289 22.064L93.8529 22.048ZM98.6973 30.112C97.9719 30.112 97.3266 29.9467 96.7613 29.616C96.2066 29.2853 95.7746 28.816 95.4653 28.208C95.1666 27.6 95.0173 26.896 95.0173 26.096C95.0173 25.296 95.1719 24.5867 95.4813 23.968C95.8013 23.3493 96.2439 22.8693 96.8093 22.528C97.3746 22.1867 98.0253 22.016 98.7613 22.016C99.1666 22.016 99.5666 22.0747 99.9613 22.192C100.367 22.2987 100.719 22.4587 101.017 22.672C101.209 22.8 101.343 22.928 101.417 23.056C101.503 23.1733 101.545 23.3067 101.545 23.456C101.545 23.6053 101.503 23.728 101.417 23.824C101.343 23.92 101.241 23.968 101.113 23.968C101.039 23.968 100.959 23.9467 100.873 23.904C100.788 23.8613 100.713 23.8187 100.649 23.776C100.596 23.7333 100.559 23.7067 100.537 23.696C100.26 23.5147 99.9933 23.3707 99.7373 23.264C99.4919 23.1573 99.1879 23.104 98.8253 23.104C98.0466 23.104 97.4386 23.3707 97.0013 23.904C96.5746 24.4267 96.3613 25.1573 96.3613 26.096C96.3613 27.0347 96.5746 27.76 97.0013 28.272C97.4386 28.784 98.0466 29.04 98.8253 29.04C99.1879 29.04 99.4973 28.9867 99.7533 28.88C100.02 28.7733 100.287 28.6293 100.553 28.448C100.671 28.3733 100.783 28.3093 100.889 28.256C100.996 28.2027 101.087 28.176 101.161 28.176C101.279 28.176 101.375 28.224 101.449 28.32C101.535 28.416 101.577 28.5387 101.577 28.688C101.577 28.8267 101.54 28.9547 101.465 29.072C101.391 29.1787 101.252 29.3013 101.049 29.44C100.751 29.6427 100.388 29.808 99.9613 29.936C99.5453 30.0533 99.1239 30.112 98.6973 30.112ZM107.074 22.016C107.991 22.016 108.684 22.2773 109.154 22.8C109.623 23.312 109.858 24.08 109.858 25.104V29.44C109.858 29.6427 109.799 29.8027 109.682 29.92C109.564 30.0267 109.41 30.08 109.218 30.08C109.015 30.08 108.855 30.0267 108.738 29.92C108.62 29.8027 108.562 29.6427 108.562 29.44V25.136C108.562 24.4427 108.418 23.9307 108.13 23.6C107.852 23.2693 107.404 23.104 106.786 23.104C106.071 23.104 105.5 23.3227 105.074 23.76C104.647 24.1973 104.434 24.7893 104.434 25.536V29.44C104.434 29.6427 104.375 29.8027 104.258 29.92C104.151 30.0267 103.996 30.08 103.794 30.08C103.591 30.08 103.431 30.0267 103.314 29.92C103.196 29.8027 103.138 29.6427 103.138 29.44V19.264C103.138 19.0827 103.196 18.9333 103.314 18.816C103.442 18.6987 103.602 18.64 103.794 18.64C103.996 18.64 104.151 18.6987 104.258 18.816C104.375 18.9227 104.434 19.072 104.434 19.264V23.456C104.69 22.9867 105.047 22.6293 105.506 22.384C105.964 22.1387 106.487 22.016 107.074 22.016Z" fill="#C4C4C4"/>
<g clip-path="url(#clip0_1_789)">
<path fill-rule="evenodd" clip-rule="evenodd" d="M40.4419 26.442C40.5348 26.349 40.6451 26.2753 40.7665 26.2249C40.8879 26.1746 41.018 26.1487 41.1494 26.1487C41.2809 26.1487 41.411 26.1746 41.5324 26.2249C41.6538 26.2753 41.7641 26.349 41.8569 26.442L45.7069 30.292C45.8946 30.4795 46.0001 30.7339 46.0001 30.9991C46.0002 31.2644 45.895 31.5189 45.7074 31.7065C45.5199 31.8941 45.2656 31.9996 45.0003 31.9997C44.735 31.9998 44.4806 31.8945 44.2929 31.707L40.4429 27.857C40.35 27.7641 40.2762 27.6538 40.2259 27.5324C40.1756 27.411 40.1497 27.2809 40.1497 27.1495C40.1497 27.0181 40.1756 26.888 40.2259 26.7666C40.2762 26.6452 40.35 26.5349 40.4429 26.442H40.4419Z" fill="#C4C4C4"/>
<path fill-rule="evenodd" clip-rule="evenodd" d="M36.5 28C37.2223 28 37.9375 27.8577 38.6048 27.5813C39.272 27.3049 39.8784 26.8998 40.3891 26.3891C40.8998 25.8784 41.3049 25.272 41.5813 24.6048C41.8577 23.9375 42 23.2223 42 22.5C42 21.7777 41.8577 21.0625 41.5813 20.3952C41.3049 19.728 40.8998 19.1216 40.3891 18.6109C39.8784 18.1002 39.272 17.6951 38.6048 17.4187C37.9375 17.1423 37.2223 17 36.5 17C35.0413 17 33.6424 17.5795 32.6109 18.6109C31.5795 19.6424 31 21.0413 31 22.5C31 23.9587 31.5795 25.3576 32.6109 26.3891C33.6424 27.4205 35.0413 28 36.5 28ZM43 22.5C43 24.2239 42.3152 25.8772 41.0962 27.0962C39.8772 28.3152 38.2239 29 36.5 29C34.7761 29 33.1228 28.3152 31.9038 27.0962C30.6848 25.8772 30 24.2239 30 22.5C30 20.7761 30.6848 19.1228 31.9038 17.9038C33.1228 16.6848 34.7761 16 36.5 16C38.2239 16 39.8772 16.6848 41.0962 17.9038C42.3152 19.1228 43 20.7761 43 22.5Z" fill="#C4C4C4"/>
</g>
<defs>
<clipPath id="clip0_1_789">
<rect x="30" y="16" width="16" height="16" rx="8" fill="white"/>
</clipPath>
</defs>
</svg>
