<svg width="25" height="25" viewBox="0 0 25 25" fill="none" xmlns="http://www.w3.org/2000/svg">
<g clip-path="url(#clip0_410_187)">
<path fill-rule="evenodd" clip-rule="evenodd" d="M12.8313 0.0953064C13.7192 0.0953064 14.5823 0.443318 15.2011 1.04819C15.8187 1.65662 16.1597 2.49114 16.1337 3.33749C16.1361 3.52807 16.2019 3.74824 16.3209 3.94119C16.5181 4.26079 16.8293 4.48569 17.1989 4.57802C17.5684 4.66562 17.9553 4.61827 18.284 4.43243C19.8713 3.56713 21.8914 4.0856 22.7979 5.58891L23.5704 6.86614C23.5903 6.90047 23.6076 6.93361 23.6225 6.96794C24.4434 8.44876 23.8953 10.3131 22.37 11.1642C22.1481 11.2861 21.9682 11.4566 21.8442 11.6625C21.652 11.981 21.5987 12.3597 21.6954 12.7078C21.7946 13.0629 22.0315 13.3576 22.3651 13.5399C23.1178 13.953 23.6795 14.649 23.904 15.4528C24.1285 16.2553 24.0057 17.1266 23.5679 17.8451L22.7445 19.1543C21.838 20.641 19.8179 21.1559 18.2468 20.2894C18.0372 20.1746 17.7954 20.1119 17.5548 20.106H17.5474C17.189 20.106 16.8207 20.2516 16.5528 20.5061C16.2812 20.7653 16.1324 21.1109 16.1349 21.4779C16.1262 23.2168 14.6443 24.623 12.8313 24.623H11.2775C9.45584 24.623 7.97394 23.2097 7.97394 21.4708C7.97146 21.2565 7.90698 21.034 7.78669 20.841C7.59199 20.5167 7.27701 20.2847 6.91367 20.1924C6.55281 20.1 6.15722 20.1509 5.83232 20.3309C5.05355 20.7452 4.13713 20.8458 3.29884 20.6209C2.46179 20.3948 1.73882 19.8455 1.31471 19.1176L0.539662 17.8427C-0.366836 16.3418 0.172598 14.4182 1.74254 13.5517C2.18773 13.3067 2.46427 12.8498 2.46427 12.3597C2.46427 11.8697 2.18773 11.4116 1.74254 11.1666C0.171358 10.2954 -0.366836 8.36709 0.538422 6.86614L1.3792 5.54867C2.27329 4.06429 4.29462 3.54109 5.87076 4.4052C6.0853 4.52712 6.31843 4.58868 6.55529 4.59104C7.32786 4.59104 7.97394 3.98262 7.98634 3.23451C7.98138 2.40946 8.3224 1.61756 8.94368 1.01979C9.56744 0.423195 10.3958 0.0953064 11.2775 0.0953064H12.8313ZM12.8313 1.87087H11.2775C10.8931 1.87087 10.5335 2.0141 10.2619 2.27215C9.99155 2.53139 9.84398 2.87585 9.84646 3.2428C9.82042 4.97338 8.33852 6.36661 6.54413 6.36661C5.96873 6.36069 5.41441 6.21273 4.93326 5.93811C4.25742 5.57116 3.37448 5.79725 2.9789 6.45421L2.13936 7.77168C1.75494 8.40851 1.99056 9.25014 2.67508 9.63011C3.6907 10.1912 4.32439 11.2376 4.32439 12.3597C4.32439 13.4819 3.6907 14.5271 2.6726 15.0894C1.9918 15.4658 1.75618 16.3027 2.15053 16.9537L2.93302 18.2416C3.12647 18.5742 3.44269 18.8145 3.80851 18.9128C4.1731 19.0098 4.57488 18.9684 4.9097 18.7909C5.40201 18.515 5.97493 18.3718 6.55033 18.3718C6.83431 18.3718 7.11828 18.4061 7.39606 18.4772C8.23436 18.6926 8.96228 19.2276 9.39383 19.9462C9.67409 20.3972 9.8291 20.9239 9.83406 21.4613C9.83406 22.2307 10.4814 22.8474 11.2775 22.8474H12.8313C13.6237 22.8474 14.2711 22.2343 14.2748 21.4779C14.2698 20.6422 14.6121 19.8479 15.2383 19.2501C15.8559 18.6606 16.719 18.3067 17.5821 18.3304C18.1476 18.3434 18.6919 18.489 19.1719 18.7494C19.8626 19.127 20.7443 18.9021 21.1436 18.2511L21.967 16.9407C22.1505 16.6389 22.2039 16.2601 22.1059 15.9109C22.0092 15.5617 21.7661 15.2587 21.4387 15.0799C20.6724 14.6585 20.1255 13.9791 19.8985 13.1647C19.6741 12.3657 19.7969 11.4933 20.2346 10.7748C20.5198 10.3013 20.9377 9.90236 21.4387 9.62774C22.1108 9.2525 22.3465 8.41325 21.9558 7.75984C21.9397 7.7338 21.9248 7.70657 21.9124 7.67817L21.1857 6.47551C20.7902 5.81855 19.9097 5.59247 19.219 5.9677C18.4725 6.3891 17.5846 6.50984 16.7314 6.29559C15.8794 6.08489 15.1652 5.56997 14.72 4.84317C14.4348 4.38863 14.2797 3.85951 14.2748 3.32092C14.2859 2.91609 14.1371 2.55269 13.8668 2.28636C13.5977 2.02121 13.2195 1.87087 12.8313 1.87087ZM12.0599 8.35063C14.3751 8.35063 16.2588 10.1499 16.2588 12.3599C16.2588 14.5699 14.3751 16.3667 12.0599 16.3667C9.74465 16.3667 7.86097 14.5699 7.86097 12.3599C7.86097 10.1499 9.74465 8.35063 12.0599 8.35063ZM12.0599 10.1262C10.7702 10.1262 9.72109 11.1288 9.72109 12.3599C9.72109 13.5909 10.7702 14.5912 12.0599 14.5912C13.3496 14.5912 14.3987 13.5909 14.3987 12.3599C14.3987 11.1288 13.3496 10.1262 12.0599 10.1262Z" fill="black"/>
</g>
<defs>
<clipPath id="clip0_410_187">
<rect width="25" height="25" fill="white"/>
</clipPath>
</defs>
</svg>
