<svg width="374" height="180" viewBox="0 0 374 180" fill="none" xmlns="http://www.w3.org/2000/svg">
<rect width="374" height="180" rx="15" fill="#DDF2FF"/>
<path d="M41.27 34.45C41.71 33.93 42.23 33.67 42.83 33.67C43.39 33.67 43.89 33.89 44.33 34.33C44.79 34.75 45.02 35.24 45.02 35.8C45.02 36.3 44.83 36.77 44.45 37.21L37.88 45.01V52.84C37.88 53.6 37.66 54.18 37.22 54.58C36.78 54.98 36.23 55.18 35.57 55.18C34.87 55.18 34.3 54.98 33.86 54.58C33.42 54.18 33.2 53.6 33.2 52.84V45.01L26.69 37.21C26.31 36.81 26.12 36.34 26.12 35.8C26.12 35.24 26.33 34.75 26.75 34.33C27.19 33.89 27.69 33.67 28.25 33.67C28.85 33.67 29.37 33.93 29.81 34.45L35.54 41.44L41.27 34.45ZM51.4899 55.24C49.9299 55.24 48.5599 54.93 47.3799 54.31C46.1999 53.67 45.2899 52.78 44.6499 51.64C44.0099 50.48 43.6899 49.12 43.6899 47.56C43.6899 46 44.0099 44.65 44.6499 43.51C45.2899 42.35 46.1999 41.46 47.3799 40.84C48.5599 40.22 49.9299 39.91 51.4899 39.91C53.0499 39.91 54.4199 40.22 55.5999 40.84C56.7799 41.46 57.6899 42.35 58.3299 43.51C58.9699 44.65 59.2899 46 59.2899 47.56C59.2899 49.12 58.9699 50.48 58.3299 51.64C57.6899 52.78 56.7799 53.67 55.5999 54.31C54.4199 54.93 53.0499 55.24 51.4899 55.24ZM51.4899 51.79C53.6899 51.79 54.7899 50.38 54.7899 47.56C54.7899 46.14 54.4999 45.08 53.9199 44.38C53.3599 43.68 52.5499 43.33 51.4899 43.33C49.2899 43.33 48.1899 44.74 48.1899 47.56C48.1899 50.38 49.2899 51.79 51.4899 51.79ZM73.9566 39.97C74.6566 39.97 75.2066 40.16 75.6066 40.54C76.0266 40.92 76.2366 41.44 76.2366 42.1V53.11C76.2366 53.73 76.0166 54.23 75.5766 54.61C75.1566 54.99 74.6066 55.18 73.9266 55.18C73.2866 55.18 72.7766 55 72.3966 54.64C72.0166 54.28 71.8266 53.8 71.8266 53.2V52.9C71.3666 53.66 70.7566 54.24 69.9966 54.64C69.2566 55.04 68.4166 55.24 67.4766 55.24C65.6166 55.24 64.2266 54.73 63.3066 53.71C62.4066 52.67 61.9566 51.11 61.9566 49.03V42.1C61.9566 41.44 62.1566 40.92 62.5566 40.54C62.9766 40.16 63.5366 39.97 64.2366 39.97C64.9366 39.97 65.4866 40.16 65.8866 40.54C66.2866 40.92 66.4866 41.44 66.4866 42.1V49.12C66.4866 50 66.6666 50.65 67.0266 51.07C67.4066 51.49 67.9766 51.7 68.7366 51.7C69.6166 51.7 70.3266 51.4 70.8666 50.8C71.4266 50.2 71.7066 49.41 71.7066 48.43V42.1C71.7066 41.44 71.9066 40.92 72.3066 40.54C72.7066 40.16 73.2566 39.97 73.9566 39.97ZM88.5027 39.97C89.1027 39.93 89.5727 40.07 89.9127 40.39C90.2727 40.69 90.4527 41.15 90.4527 41.77C90.4527 42.43 90.2927 42.92 89.9727 43.24C89.6527 43.56 89.0827 43.76 88.2627 43.84L87.3627 43.93C86.2627 44.05 85.4627 44.41 84.9627 45.01C84.4827 45.61 84.2427 46.38 84.2427 47.32V53.05C84.2427 53.75 84.0227 54.28 83.5827 54.64C83.1627 55 82.6327 55.18 81.9927 55.18C81.3327 55.18 80.7827 55 80.3427 54.64C79.9227 54.28 79.7127 53.75 79.7127 53.05V42.04C79.7127 41.38 79.9327 40.87 80.3727 40.51C80.8127 40.15 81.3427 39.97 81.9627 39.97C82.5627 39.97 83.0627 40.15 83.4627 40.51C83.8627 40.85 84.0627 41.33 84.0627 41.95V42.76C84.4227 41.9 84.9627 41.24 85.6827 40.78C86.4227 40.32 87.2227 40.06 88.0827 40L88.5027 39.97ZM34.37 74.91C36.53 74.91 38.13 75.44 39.17 76.5C40.21 77.54 40.73 79.14 40.73 81.3V88.08C40.73 88.74 40.54 89.26 40.16 89.64C39.78 90 39.25 90.18 38.57 90.18C37.93 90.18 37.41 89.99 37.01 89.61C36.63 89.21 36.44 88.7 36.44 88.08V87.87C36.14 88.61 35.64 89.19 34.94 89.61C34.24 90.03 33.42 90.24 32.48 90.24C31.48 90.24 30.57 90.04 29.75 89.64C28.95 89.24 28.31 88.68 27.83 87.96C27.37 87.24 27.14 86.44 27.14 85.56C27.14 84.48 27.41 83.63 27.95 83.01C28.51 82.39 29.4 81.94 30.62 81.66C31.84 81.38 33.51 81.24 35.63 81.24H36.41V80.7C36.41 79.86 36.22 79.25 35.84 78.87C35.48 78.49 34.87 78.3 34.01 78.3C33.15 78.3 31.91 78.6 30.29 79.2C29.83 79.42 29.44 79.53 29.12 79.53C28.68 79.53 28.33 79.38 28.07 79.08C27.81 78.76 27.68 78.35 27.68 77.85C27.68 77.45 27.77 77.12 27.95 76.86C28.13 76.6 28.42 76.36 28.82 76.14C29.52 75.76 30.37 75.46 31.37 75.24C32.39 75.02 33.39 74.91 34.37 74.91ZM33.47 87.12C34.35 87.12 35.06 86.83 35.6 86.25C36.14 85.65 36.41 84.88 36.41 83.94V83.43H35.9C34.28 83.43 33.14 83.56 32.48 83.82C31.84 84.08 31.52 84.55 31.52 85.23C31.52 85.79 31.7 86.25 32.06 86.61C32.44 86.95 32.91 87.12 33.47 87.12ZM50.927 90.24C49.407 90.24 48.077 89.93 46.937 89.31C45.797 88.69 44.917 87.81 44.297 86.67C43.697 85.53 43.397 84.19 43.397 82.65C43.397 81.11 43.717 79.76 44.357 78.6C45.017 77.42 45.937 76.51 47.117 75.87C48.297 75.23 49.657 74.91 51.197 74.91C51.997 74.91 52.797 75.02 53.597 75.24C54.417 75.46 55.147 75.77 55.787 76.17C56.407 76.55 56.717 77.11 56.717 77.85C56.717 78.37 56.597 78.8 56.357 79.14C56.117 79.46 55.797 79.62 55.397 79.62C55.137 79.62 54.887 79.58 54.647 79.5C54.427 79.4 54.127 79.26 53.747 79.08C53.327 78.86 52.947 78.69 52.607 78.57C52.287 78.45 51.917 78.39 51.497 78.39C50.377 78.39 49.517 78.75 48.917 79.47C48.337 80.17 48.047 81.2 48.047 82.56C48.047 83.92 48.337 84.96 48.917 85.68C49.517 86.4 50.377 86.76 51.497 86.76C51.917 86.76 52.287 86.71 52.607 86.61C52.927 86.49 53.317 86.31 53.777 86.07C54.157 85.89 54.457 85.76 54.677 85.68C54.897 85.58 55.137 85.53 55.397 85.53C55.777 85.53 56.087 85.7 56.327 86.04C56.587 86.38 56.717 86.81 56.717 87.33C56.717 88.07 56.407 88.62 55.787 88.98C55.147 89.38 54.407 89.69 53.567 89.91C52.727 90.13 51.847 90.24 50.927 90.24ZM67.2777 86.88C67.8777 86.92 68.3177 87.07 68.5977 87.33C68.8777 87.59 69.0177 87.97 69.0177 88.47C69.0177 89.05 68.7877 89.49 68.3277 89.79C67.8677 90.09 67.2077 90.21 66.3477 90.15L65.5077 90.09C62.0077 89.81 60.2577 87.98 60.2577 84.6V78.66H59.0577C58.3977 78.66 57.8977 78.52 57.5577 78.24C57.2177 77.94 57.0477 77.52 57.0477 76.98C57.0477 76.42 57.2177 76 57.5577 75.72C57.8977 75.42 58.3977 75.27 59.0577 75.27H60.2577V72.93C60.2577 72.27 60.4577 71.75 60.8577 71.37C61.2777 70.99 61.8377 70.8 62.5377 70.8C63.2377 70.8 63.7877 70.99 64.1877 71.37C64.5877 71.75 64.7877 72.27 64.7877 72.93V75.27H66.8877C68.2477 75.27 68.9277 75.84 68.9277 76.98C68.9277 77.52 68.7577 77.94 68.4177 78.24C68.0777 78.52 67.5677 78.66 66.8877 78.66H64.7877V84.93C64.7877 85.53 64.9277 85.99 65.2077 86.31C65.4877 86.61 65.8977 86.78 66.4377 86.82L67.2777 86.88ZM72.9692 90.18C72.3092 90.18 71.7592 90 71.3192 89.64C70.8992 89.28 70.6892 88.75 70.6892 88.05V77.1C70.6892 76.4 70.9092 75.87 71.3492 75.51C71.7892 75.15 72.3292 74.97 72.9692 74.97C73.6092 74.97 74.1392 75.15 74.5592 75.51C74.9992 75.87 75.2192 76.4 75.2192 77.1V88.05C75.2192 88.75 74.9992 89.28 74.5592 89.64C74.1392 90 73.6092 90.18 72.9692 90.18ZM72.9692 72.57C72.1692 72.57 71.5392 72.37 71.0792 71.97C70.6192 71.55 70.3892 70.99 70.3892 70.29C70.3892 69.59 70.6192 69.04 71.0792 68.64C71.5392 68.24 72.1692 68.04 72.9692 68.04C73.7492 68.04 74.3692 68.25 74.8292 68.67C75.3092 69.07 75.5492 69.61 75.5492 70.29C75.5492 70.99 75.3192 71.55 74.8592 71.97C74.3992 72.37 73.7692 72.57 72.9692 72.57ZM88.7373 76.26C88.9373 75.84 89.1973 75.53 89.5173 75.33C89.8573 75.11 90.2173 75 90.5973 75C91.1573 75 91.6573 75.19 92.0973 75.57C92.5373 75.93 92.7573 76.37 92.7573 76.89C92.7573 77.19 92.6873 77.48 92.5473 77.76L87.1473 88.83C86.9473 89.27 86.6473 89.61 86.2473 89.85C85.8473 90.07 85.4173 90.18 84.9573 90.18C84.4973 90.18 84.0673 90.07 83.6673 89.85C83.2673 89.61 82.9573 89.27 82.7373 88.83L77.3373 77.76C77.2173 77.48 77.1573 77.21 77.1573 76.95C77.1573 76.41 77.3873 75.95 77.8473 75.57C78.3273 75.19 78.8573 75 79.4373 75C79.8573 75 80.2373 75.11 80.5773 75.33C80.9173 75.53 81.1873 75.84 81.3873 76.26L85.0773 84.33L88.7373 76.26ZM97.5786 90.18C96.9186 90.18 96.3686 90 95.9286 89.64C95.5086 89.28 95.2986 88.75 95.2986 88.05V77.1C95.2986 76.4 95.5186 75.87 95.9586 75.51C96.3986 75.15 96.9386 74.97 97.5786 74.97C98.2186 74.97 98.7486 75.15 99.1686 75.51C99.6086 75.87 99.8286 76.4 99.8286 77.1V88.05C99.8286 88.75 99.6086 89.28 99.1686 89.64C98.7486 90 98.2186 90.18 97.5786 90.18ZM97.5786 72.57C96.7786 72.57 96.1486 72.37 95.6886 71.97C95.2286 71.55 94.9986 70.99 94.9986 70.29C94.9986 69.59 95.2286 69.04 95.6886 68.64C96.1486 68.24 96.7786 68.04 97.5786 68.04C98.3586 68.04 98.9786 68.25 99.4386 68.67C99.9186 69.07 100.159 69.61 100.159 70.29C100.159 70.99 99.9286 71.55 99.4686 71.97C99.0086 72.37 98.3786 72.57 97.5786 72.57ZM112.366 86.88C112.966 86.92 113.406 87.07 113.686 87.33C113.966 87.59 114.106 87.97 114.106 88.47C114.106 89.05 113.876 89.49 113.416 89.79C112.956 90.09 112.296 90.21 111.436 90.15L110.596 90.09C107.096 89.81 105.346 87.98 105.346 84.6V78.66H104.146C103.486 78.66 102.986 78.52 102.646 78.24C102.306 77.94 102.136 77.52 102.136 76.98C102.136 76.42 102.306 76 102.646 75.72C102.986 75.42 103.486 75.27 104.146 75.27H105.346V72.93C105.346 72.27 105.546 71.75 105.946 71.37C106.366 70.99 106.926 70.8 107.626 70.8C108.326 70.8 108.876 70.99 109.276 71.37C109.676 71.75 109.876 72.27 109.876 72.93V75.27H111.976C113.336 75.27 114.016 75.84 114.016 76.98C114.016 77.52 113.846 77.94 113.506 78.24C113.166 78.52 112.656 78.66 111.976 78.66H109.876V84.93C109.876 85.53 110.016 85.99 110.296 86.31C110.576 86.61 110.986 86.78 111.526 86.82L112.366 86.88ZM118.057 90.18C117.397 90.18 116.847 90 116.407 89.64C115.987 89.28 115.777 88.75 115.777 88.05V77.1C115.777 76.4 115.997 75.87 116.437 75.51C116.877 75.15 117.417 74.97 118.057 74.97C118.697 74.97 119.227 75.15 119.647 75.51C120.087 75.87 120.307 76.4 120.307 77.1V88.05C120.307 88.75 120.087 89.28 119.647 89.64C119.227 90 118.697 90.18 118.057 90.18ZM118.057 72.57C117.257 72.57 116.627 72.37 116.167 71.97C115.707 71.55 115.477 70.99 115.477 70.29C115.477 69.59 115.707 69.04 116.167 68.64C116.627 68.24 117.257 68.04 118.057 68.04C118.837 68.04 119.457 68.25 119.917 68.67C120.397 69.07 120.637 69.61 120.637 70.29C120.637 70.99 120.407 71.55 119.947 71.97C119.487 72.37 118.857 72.57 118.057 72.57ZM135.595 85.62C135.995 85.62 136.315 85.78 136.555 86.1C136.815 86.42 136.945 86.83 136.945 87.33C136.945 87.67 136.845 87.99 136.645 88.29C136.445 88.57 136.165 88.81 135.805 89.01C135.125 89.37 134.335 89.67 133.435 89.91C132.535 90.13 131.705 90.24 130.945 90.24C129.345 90.24 127.945 89.93 126.745 89.31C125.565 88.69 124.655 87.81 124.015 86.67C123.375 85.51 123.055 84.15 123.055 82.59C123.055 81.09 123.365 79.76 123.985 78.6C124.605 77.44 125.465 76.54 126.565 75.9C127.665 75.24 128.915 74.91 130.315 74.91C131.655 74.91 132.825 75.21 133.825 75.81C134.845 76.39 135.635 77.23 136.195 78.33C136.755 79.41 137.035 80.68 137.035 82.14C137.035 82.58 136.925 82.92 136.705 83.16C136.505 83.38 136.215 83.49 135.835 83.49H127.435C127.575 84.67 127.935 85.53 128.515 86.07C129.095 86.59 129.925 86.85 131.005 86.85C131.585 86.85 132.105 86.78 132.565 86.64C133.025 86.5 133.535 86.31 134.095 86.07C134.375 85.95 134.645 85.85 134.905 85.77C135.165 85.67 135.395 85.62 135.595 85.62ZM130.435 78.03C129.575 78.03 128.885 78.31 128.365 78.87C127.845 79.41 127.535 80.2 127.435 81.24H133.225C133.165 80.18 132.895 79.38 132.415 78.84C131.955 78.3 131.295 78.03 130.435 78.03ZM145.351 90.24C144.131 90.24 143.071 90.14 142.171 89.94C141.271 89.74 140.481 89.42 139.801 88.98C139.501 88.8 139.271 88.56 139.111 88.26C138.951 87.96 138.871 87.62 138.871 87.24C138.871 86.78 139.001 86.4 139.261 86.1C139.521 85.78 139.841 85.62 140.221 85.62C140.481 85.62 140.741 85.67 141.001 85.77C141.261 85.85 141.531 85.95 141.811 86.07C142.371 86.33 142.921 86.54 143.461 86.7C144.001 86.84 144.671 86.91 145.471 86.91C146.171 86.91 146.711 86.8 147.091 86.58C147.491 86.36 147.691 86.06 147.691 85.68C147.691 85.4 147.601 85.18 147.421 85.02C147.261 84.84 146.951 84.68 146.491 84.54C146.031 84.4 145.301 84.23 144.301 84.03C142.521 83.69 141.241 83.18 140.461 82.5C139.681 81.82 139.291 80.87 139.291 79.65C139.291 78.75 139.561 77.94 140.101 77.22C140.661 76.5 141.421 75.94 142.381 75.54C143.341 75.12 144.421 74.91 145.621 74.91C146.481 74.91 147.321 75.02 148.141 75.24C148.961 75.46 149.691 75.77 150.331 76.17C150.951 76.55 151.261 77.11 151.261 77.85C151.261 78.33 151.131 78.73 150.871 79.05C150.611 79.37 150.291 79.53 149.911 79.53C149.451 79.53 148.901 79.35 148.261 78.99C147.761 78.73 147.301 78.54 146.881 78.42C146.481 78.28 146.001 78.21 145.441 78.21C144.821 78.21 144.331 78.33 143.971 78.57C143.611 78.79 143.431 79.1 143.431 79.5C143.431 79.92 143.641 80.24 144.061 80.46C144.481 80.68 145.291 80.9 146.491 81.12C147.831 81.38 148.881 81.7 149.641 82.08C150.401 82.44 150.951 82.9 151.291 83.46C151.631 84.02 151.801 84.73 151.801 85.59C151.801 87.01 151.211 88.14 150.031 88.98C148.871 89.82 147.311 90.24 145.351 90.24Z" fill="#2B2B2B"/>
<path d="M333.267 144.503V134.248C333.275 129.469 330.4 125.155 325.984 123.324L304.509 114.376L298.967 92.2171L334.94 56.2435L331.594 52.8969L319.067 65.4235L291.647 38.0037L316.007 13.6438L312.661 10.2972L272.917 50.0403L260.928 38.051L279.371 19.6078L276.022 16.2612L229.922 62.3635L201.523 90.7634L198.081 94.2116C196.674 95.6192 195.92 97.5525 196.007 99.5401C196.092 101.529 197.009 103.391 198.533 104.67L248.777 146.87L250.434 151.603H257.582H281.201H288.301H322.173L332.831 146.87C333.111 146.112 333.259 145.312 333.267 144.503ZM301.589 118.288L324.162 127.7C326.81 128.797 328.535 131.382 328.534 134.248V137.403H291.524L252.356 104.762C255.352 96.3587 254.654 87.0782 250.434 79.2167L262.267 67.3834L267.022 72.1387C267.573 84.8017 277.992 94.7894 290.667 94.8033H294.735L295.918 99.5366H281.201V104.27H297.102L298.285 109.003H283.567V113.737H299.468L300.204 116.679C300.386 117.403 300.899 118.001 301.589 118.288ZM246.945 82.7054C249.714 88.5909 250.261 95.2794 248.484 101.537L237.373 92.2784L246.945 82.7054ZM315.721 68.7701L294.421 90.07H290.667C280.215 90.0584 271.746 81.5891 271.734 71.1368C271.734 70.5093 271.484 69.9072 271.041 69.4635L265.614 64.0368L288.301 41.3502L315.721 68.7701ZM269.571 53.3869L243.161 79.7968C241.775 77.1204 241.055 74.1506 241.062 71.1368C241.061 70.5093 240.813 69.9072 240.369 69.4635L234.941 64.0368L257.582 41.3976L269.571 53.3869ZM217.819 101.537L206.696 92.2737L216.269 82.7008C219.044 88.5862 219.595 95.2771 217.819 101.537ZM201.579 101.047C201.071 100.621 200.766 100 200.737 99.3367C200.708 98.6745 200.959 98.0297 201.428 97.5606L203.347 95.6388L258.481 141.587C258.906 141.942 259.443 142.138 259.998 142.136H264.634V137.403H260.859L221.693 104.765C224.691 96.3553 223.992 87.0712 219.769 79.2051L231.603 67.3719L236.357 72.126C236.528 76.0504 237.688 79.8684 239.73 83.2231L232.201 90.7518L228.746 94.2116C227.337 95.618 226.585 97.5513 226.671 99.5401C226.756 101.529 227.671 103.389 229.196 104.67L279.435 146.87H256.132L201.579 101.047ZM286.795 146.87L232.242 101.047C231.732 100.621 231.427 99.9989 231.402 99.3355C231.368 98.6722 231.619 98.0274 232.093 97.5606L234.014 95.6388L289.157 141.587C289.581 141.941 290.115 142.135 290.667 142.136H328.534V144.503C328.534 149.967 291.782 146.87 286.795 146.87Z" fill="#A3D2EF"/>
</svg>
